<svg width="747" height="747" viewBox="0 0 747 747" fill="none" xmlns="http://www.w3.org/2000/svg">
<g clip-path="url(#clip0_33_13)">
<path d="M193.2 99.8666C115.733 127.467 52.4 185.467 21.8667 256.667C7.20002 290.667 2.00002 316.8 2.13335 354.667C2.13335 377.733 2.53335 382.667 5.86668 398C18 456 46.9333 501.733 94.6667 538.8C128.533 565.2 172.133 583.6 219.867 591.6C230.933 593.467 241.2 594 266.667 594C301.467 593.867 311.067 592.8 340.4 585.867L354.667 582.4L348.4 577.6C332.8 565.867 318.133 552.933 302 536.667C237.6 472.133 197.067 390.8 184.667 301.333C181.733 279.867 180.533 233.733 182.533 212.533C185.867 176.533 192.533 143.733 203.333 111.733C206.4 102.4 208.667 94.6667 208.133 94.8C207.733 94.8 200.933 97.0666 193.2 99.8666ZM131.467 273.467C160.533 284.4 168.8 322.267 146.8 343.733C132.667 357.467 110.4 360.667 92.2667 351.467C65.4667 337.867 60.8 302 83.0667 281.867C91.7334 274.133 100.667 270.8 113.6 270.8C120.933 270.667 126 271.467 131.467 273.467Z" fill="#CD2024"/>
<path d="M504.8 103.467C506.667 108.4 510.533 120.667 513.333 130.934C546.8 249.067 527.733 373.467 461.2 472.667C434.667 512.134 403.6 545.734 367.733 573.467L356 582.4L370.4 585.867C394.533 591.6 409.067 593.467 434.667 594.267C486.4 595.867 530.133 586.667 572.933 565.467C645.2 529.6 691.067 470 706.133 392.667C708 383.734 708.533 373.867 708.667 354C708.667 325.467 707.733 317.467 701.2 292.267C682 217.334 625.867 151.2 550 114C534.533 106.4 505.333 94.667 501.867 94.667C501.733 94.667 502.933 98.667 504.8 103.467Z" fill="#CD2024"/>
<path d="M730.133 428.8C716 479.2 673.6 532.667 619.333 568.933C573.6 599.6 527.2 615.467 478.667 617.2L456.667 618L465.067 626.267C474.933 635.867 490 644 506 648.267C521.6 652.4 552.4 652.267 572 648.133C617.6 638.133 660.4 613.6 694.8 577.733C743.2 526.933 759.333 465.6 734.667 425.067L732.267 421.067L730.133 428.8Z" fill="#CD2024"/>
<ellipse cx="114" cy="313.5" rx="46" ry="43.5" fill="#8FAADC"/>
</g>
<defs>
<clipPath id="clip0_33_13">
<rect width="746.667" height="746.667" fill="white"/>
</clipPath>
</defs>
</svg>
